<svg xmlns="http://www.w3.org/2000/svg" viewBox="0 0 512 512" width="100" height="100">
  <!-- Base circle -->
  <circle cx="256" cy="256" r="240" fill="#3f51b5" />
  <circle cx="256" cy="256" r="220" fill="#303f9f" />
  
  <!-- Gear shape in background -->
  <path d="M256 150c-58.5 0-106 47.5-106 106s47.5 106 106 106 106-47.5 106-106-47.5-106-106-106zm0 192c-47.4 0-86-38.6-86-86s38.6-86 86-86 86 38.6 86 86-38.6 86-86 86z" fill="#1a237e" />
  
  <!-- Car silhouette -->
  <path d="M386 226c-2.5-4.3-7.1-7-12.2-7h-18.4l-27.1-45.2c-7.8-13.1-22.1-21.2-37.5-21.2h-67.6c-15.4 0-29.7 8.1-37.5 21.2L158.7 219h-18.4c-5.1 0-9.7 2.7-12.2 7l-24 41.6c-0.9 1.5-1.3 3.3-1.3 5v63.2c0 5.6 4.5 10.1 10.1 10.1h20.4c5.6 0 10.1-4.5 10.1-10.1v-13.9h230v13.9c0 5.6 4.5 10.1 10.1 10.1h20.4c5.6 0 10.1-4.5 10.1-10.1v-63.2c0-1.7-0.5-3.5-1.3-5L386 226z" fill="#ffffff" />
  
  <!-- Car details -->
  <path d="M171.2 301c-11.7 0-21.2-9.5-21.2-21.2s9.5-21.2 21.2-21.2 21.2 9.5 21.2 21.2-9.5 21.2-21.2 21.2zm169.7 0c-11.7 0-21.2-9.5-21.2-21.2s9.5-21.2 21.2-21.2 21.2 9.5 21.2 21.2-9.5 21.2-21.2 21.2z" fill="#263238" />
  <path d="M192.4 258.5h127.3c4.7 0 8.5-3.8 8.5-8.5s-3.8-8.5-8.5-8.5H192.4c-4.7 0-8.5 3.8-8.5 8.5s3.8 8.5 8.5 8.5z" fill="#263238" />
  
  <!-- Text: GlaCK0N -->
  <text x="256" y="380" font-family="Arial, sans-serif" font-size="36" font-weight="bold" text-anchor="middle" fill="#ffffff">GlaCK0N</text>
  
  <!-- Paint spray icon for garage -->
  <g transform="translate(330, 190) scale(0.5)">
    <path d="M50,40 L70,20 A10,10 0 0,1 90,40 L70,60 Z" fill="#ff4081" />
    <circle cx="90" cy="40" r="5" fill="#ffffff" />
    <path d="M50,40 L30,60 L40,70 L60,50 Z" fill="#ff4081" />
    <path d="M30,60 L20,70 A5,5 0 0,0 30,80 L40,70 Z" fill="#ff4081" />
  </g>
  
  <!-- Inner circle for polished look -->
  <circle cx="256" cy="256" r="60" fill="#3f51b5" stroke="#ffffff" stroke-width="4" />
</svg>
